<svg width="42" height="62" viewBox="0 0 42 62" fill="none" xmlns="http://www.w3.org/2000/svg">
<path d="M37.6612 39.4063C34.3588 41.6255 34.3045 42.6094 36.5193 53.1001C35.6939 52.5329 35.0815 52.1995 34.5505 51.7366C29.6168 47.4246 25.2776 42.491 21.4735 37.0308C15.2381 28.0881 9.62784 18.7234 4.94721 8.75778C3.96885 6.66764 2.59849 4.62848 3.07693 2.00541C3.16532 1.50195 2.22766 0.750497 1.76284 0.115396C1.47992 0.221914 1.19019 0.329724 0.907277 0.436242C0.941157 1.77622 0.70158 3.19811 1.06739 4.42994C1.88017 7.17501 2.78153 9.94144 4.01586 12.493C8.59426 21.9531 13.5955 31.189 19.8169 39.5334C23.5393 44.5222 27.9137 48.9699 32.0423 53.6084C33.1311 54.8258 34.3964 55.8579 36.1005 57.4615C34.8336 57.2817 34.1311 57.3303 33.5258 57.0715C29.4615 55.319 25.4242 53.4853 21.3694 51.7082C20.3946 51.2832 19.1587 50.0707 18.4399 51.5296C17.7049 53.0143 19.3308 53.4917 20.2093 54.0413C25.9101 57.6003 32.0173 59.9494 38.3973 61.5397C41.3692 62.2809 42.382 60.7742 41.457 57.8449C40.6681 55.3388 39.7893 52.842 38.7637 50.426C37.3117 47.0178 36.697 43.5661 37.6462 39.4015L37.6612 39.4063Z" fill="#FC787D"/>
</svg>
