<svg width="200" height="200" viewBox="0 0 200 200" fill="none" xmlns="http://www.w3.org/2000/svg">
<g clip-path="url(#clip0_5971_14115)">
<path d="M32.1076 91.1266C33.0677 92.3249 34.0605 93.5623 34.9611 94.8107C48.404 113.454 63.383 131.679 77.8681 149.303C82.6975 155.179 87.6912 161.254 92.5537 167.254C94.1082 169.173 95.5599 170.135 97.1288 170.282C97.2703 170.295 97.4125 170.301 97.5547 170.301C98.9639 170.301 100.451 169.655 102.189 168.293C105.201 165.852 107.956 163.2 110.423 160.367C130.231 138.314 149.455 116.779 165.648 98.6208C167.452 96.5982 169.218 94.5048 170.928 92.4807C172.484 90.6363 174.094 88.7295 175.723 86.8862C177.593 84.7698 177.681 82.6586 175.985 80.6105C174.997 79.4246 173.936 78.2815 172.808 77.1854C170.227 74.6595 167.638 72.1391 165.042 69.624C162.412 67.0693 159.786 64.512 157.164 61.9521C156.087 60.8976 155.014 59.8061 153.976 58.7505C152.746 57.5001 151.474 56.2059 150.18 54.9592C146.142 51.0656 142.764 47.8912 139.551 44.9672C138.724 44.2595 137.673 43.7602 136.521 43.5271C135.109 43.2747 133.666 43.1625 132.223 43.1927C126.768 43.1713 121.313 43.1755 116.743 43.1775H112.707H112.677L100.826 43.6417C90.0792 44.0627 79.9273 44.4614 69.8871 44.825C67.5347 44.9105 64.9519 45.2257 64.0807 47.9084C63.9773 48.0827 63.8361 48.2396 63.6638 48.371C63.5955 48.4314 63.5283 48.4923 63.4656 48.5522C62.3851 49.5814 61.307 50.6122 60.2314 51.6445C57.5628 54.2006 54.8029 56.8436 52.0421 59.4075C44.6065 66.3398 37.6877 73.6442 31.3247 81.2796C30.3715 82.5099 29.6263 83.8435 29.11 85.2428C28.9648 85.6421 28.9166 86.0612 28.9678 86.4762C29.019 86.8911 29.1685 87.2934 29.4082 87.6598C30.2731 88.8388 31.2057 90.0023 32.1076 91.1266Z" fill="#1BB6F9"/>
</g>
<g clip-path="url(#clip1_5971_14115)">
<path d="M26.7312 78.4362C27.6913 79.6345 28.6841 80.8719 29.5847 82.1202C43.0276 100.764 58.0067 118.988 72.4918 136.613C77.3211 142.488 82.3148 148.564 87.1773 154.564C88.7318 156.483 90.1836 157.445 91.7525 157.591C91.894 157.604 92.0362 157.61 92.1783 157.61C93.5875 157.61 95.0744 156.964 96.813 155.603C99.8248 153.161 102.579 150.51 105.047 147.676C124.854 125.624 144.079 104.089 160.272 85.9304C162.075 83.9078 163.841 81.8144 165.551 79.7902C167.108 77.9459 168.718 76.0391 170.347 74.1957C172.216 72.0794 172.305 69.9682 170.609 67.9201C169.62 66.7342 168.56 65.591 167.432 64.4949C164.85 61.9691 162.262 59.4487 159.666 56.9336C157.035 54.3789 154.409 51.8215 151.788 49.2617C150.71 48.2071 149.638 47.1156 148.599 46.0601C147.37 44.8096 146.098 43.5155 144.804 42.2687C140.765 38.3752 137.388 35.2007 134.174 32.2768C133.348 31.5691 132.297 31.0698 131.144 30.8367C129.733 30.5843 128.29 30.4721 126.847 30.5023C121.392 30.4809 115.937 30.485 111.367 30.4871H107.33H107.3L95.4501 30.9513C84.7028 31.3722 74.551 31.7709 64.5108 32.1346C62.1584 32.2201 59.5755 32.5352 58.7043 35.2179C58.6009 35.3923 58.4598 35.5492 58.2875 35.6806C58.2192 35.741 58.1519 35.8019 58.0893 35.8618C57.0087 36.891 55.9306 37.9217 54.8551 38.9541C52.1864 41.5101 49.4265 44.1532 46.6658 46.717C39.2302 53.6493 32.3114 60.9537 25.9483 68.5891C24.9952 69.8195 24.2499 71.1531 23.7337 72.5524C23.5885 72.9517 23.5403 73.3708 23.5915 73.7857C23.6426 74.2007 23.7922 74.603 24.0318 74.9693C24.8968 76.1484 25.8294 77.3118 26.7312 78.4362ZM155.86 76.9627C155.834 76.9961 155.807 77.0289 155.78 77.0618C155.288 77.6713 154.863 78.1987 154.391 78.7061C152.491 80.7516 150.58 82.7903 148.659 84.8222C144.955 88.7558 141.125 92.8239 137.478 96.9029C128.912 106.485 120.274 116.27 111.919 125.733C108.433 129.682 104.945 133.63 101.456 137.577C101.312 137.741 101.169 137.902 101.025 138.06C101.463 136.98 101.919 135.875 102.387 134.795C104.725 129.402 107.064 124.009 109.402 118.617C114.72 106.352 120.03 94.0852 125.331 81.8155C125.779 80.6991 126.146 79.561 126.428 78.4076C126.553 77.9428 126.684 77.4629 126.83 76.9627H155.86ZM116.697 76.9492L91.656 136.806C89.6481 129.908 87.3972 123.012 85.2095 116.325C81.0947 103.735 76.8428 90.7242 74.1697 77.4926L116.697 76.9492ZM103.132 37.948C107.505 37.812 111.915 37.8203 116.193 37.8265C120.481 37.8338 124.916 37.8412 129.305 37.7047L157.148 68.7855L124.673 69.3404L124.265 69.3476L103.132 37.948ZM75.156 69.938C81.0432 59.8611 88.5245 51.3323 96.9633 42.1323L112.237 69.2482L75.156 69.938ZM63.3459 77.7166C66.7041 91.5333 71.3569 105.218 75.8575 118.455C77.1652 122.3 78.5085 126.252 79.8138 130.188C70.1531 119.399 61.2903 107.969 52.7012 96.8919C47.8161 90.5903 42.7696 84.0824 37.6239 77.7531C42.0625 77.3269 57.3829 77.2831 63.3459 77.7161V77.7166ZM82.167 38.408C84.1595 38.3913 86.1515 38.3757 88.1431 38.3611C88.331 38.3585 88.5107 38.368 88.7462 38.382C80.6519 47.4216 71.6863 58.0115 65.811 70.0968H33.8135C34.0056 69.8252 34.2217 69.5658 34.4603 69.3211C42.1293 61.7419 48.5871 55.3715 55.1771 48.9152C56.8681 47.2558 58.6185 45.5833 60.3077 43.9656C61.8897 42.4522 63.4659 40.9342 65.0358 39.4115C65.2871 39.1169 65.6221 38.8787 66.0111 38.7181C66.4 38.5575 66.8308 38.4794 67.2648 38.4909C72.2333 38.4914 77.2831 38.4476 82.167 38.4075V38.408Z" fill="black"/>
</g>
<defs>
<clipPath id="clip0_5971_14115">
<rect width="149.059" height="127.647" fill="white" transform="translate(28.1245 42.3525)"/>
</clipPath>
<clipPath id="clip1_5971_14115">
<rect width="149.059" height="127.647" fill="white" transform="translate(23 30)"/>
</clipPath>
</defs>
</svg>
