<svg width="200" height="200" viewBox="0 0 200 200" fill="none" xmlns="http://www.w3.org/2000/svg">
<g clip-path="url(#clip0_5966_13827)">
<path d="M110.569 174.48C97.8104 174.262 85.0428 174.264 72.2967 173.75C63.6876 173.402 55.0626 172.794 46.5705 171.048C41.6762 170.041 38.6733 167.268 37.9172 162.336C37.4508 159.436 37.181 156.509 37.1099 153.574C36.8437 137.213 36.8259 120.849 36.4277 104.492C36.1277 92.1577 35.3519 79.8355 34.8534 67.5057C34.636 62.1339 34.6144 56.8199 35.9327 51.4721C37.8048 43.883 42.7376 39.8053 49.9158 38.0405C52.7854 37.3818 55.7152 37.0201 58.6591 36.961C69.3525 36.5963 80.0534 36.4372 90.7479 36.1056C98.6933 35.8588 106.632 35.2798 114.577 35.1962C120.949 35.1298 127.328 35.5707 133.703 35.8163C136.071 35.9193 138.359 36.7011 140.293 38.068C146.797 42.5093 152.551 47.8268 158.302 53.1642C162.035 56.6281 165.838 60.0357 169.824 63.1995C172.442 65.2776 173.763 67.7348 173.725 70.9931C173.637 78.3405 173.59 85.6884 173.421 93.0343C173.141 105.277 172.647 117.516 172.493 129.76C172.435 140.539 171.07 151.271 168.428 161.723C168.061 163.14 167.591 164.529 167.17 165.934C166.002 169.824 163.274 171.983 159.367 172.589C155.892 173.214 152.378 173.61 148.851 173.77C137.861 174 126.866 174.006 115.873 174.094C114.107 174.108 112.34 174.094 110.573 174.094C110.572 174.226 110.57 174.353 110.569 174.48Z" fill="#FBB130"/>
</g>
<g clip-path="url(#clip1_5966_13827)">
<path d="M100.863 164.775C88.1047 164.557 75.3371 164.559 62.5911 164.045C53.982 163.697 45.3569 163.088 36.8648 161.343C31.9705 160.336 28.9677 157.563 28.2115 152.631C27.7451 149.731 27.4753 146.804 27.4042 143.869C27.138 127.508 27.1202 111.144 26.722 94.787C26.422 82.4526 25.6463 70.1304 25.1477 57.8006C24.9303 52.4288 24.9087 47.1148 26.2271 41.767C28.0991 34.1779 33.0319 30.1002 40.2101 28.3354C43.0797 27.6767 46.0095 27.315 48.9534 27.256C59.6468 26.8912 70.3477 26.7321 81.0422 26.4005C88.9876 26.1537 96.9261 25.5747 104.871 25.4911C111.244 25.4247 117.622 25.8656 123.997 26.1113C126.365 26.2143 128.653 26.996 130.587 28.3629C137.091 32.8043 142.845 38.1217 148.597 43.4592C152.329 46.923 156.132 50.3307 160.118 53.4944C162.736 55.5725 164.058 58.0297 164.019 61.288C163.931 68.6354 163.884 75.9833 163.716 83.3293C163.436 95.5721 162.941 107.811 162.788 120.055C162.73 130.834 161.365 141.566 158.723 152.018C158.355 153.435 157.885 154.824 157.464 156.229C156.296 160.119 153.568 162.278 149.662 162.884C146.186 163.509 142.673 163.904 139.145 164.065C128.155 164.294 117.16 164.301 106.167 164.389C104.401 164.403 102.634 164.389 100.867 164.389C100.866 164.521 100.865 164.648 100.863 164.775ZM48.4289 35.7041C45.6178 36.1387 43.1858 36.3379 40.8502 36.9168C37.2519 37.8084 34.7609 39.91 34.1671 43.8359C33.9125 45.2812 33.5285 46.7006 33.0197 48.0774C31.8419 51.5023 31.8843 55.0286 32.1706 58.5434C32.9973 68.6892 34.2359 78.8116 34.7316 88.9719C35.3742 102.176 35.4776 115.406 35.7645 128.627C35.9056 135.09 35.9077 141.556 36.0333 148.02C36.1366 153.339 36.5496 154.007 41.7251 154.597C50.1013 155.552 58.5027 156.759 66.9076 156.875C87.9056 157.167 108.915 156.971 129.918 156.818C135.206 156.779 140.498 156.26 145.772 155.787C149.283 155.472 149.524 155.215 150.247 151.894C151.019 148.36 151.662 144.792 152.231 141.22C153.669 132.193 153.713 123.077 153.894 113.969C154.03 107.115 154.239 100.261 154.407 93.4064C154.64 83.9076 154.833 74.4086 155.114 64.9109C155.194 63.9502 155.021 62.9852 154.613 62.1114C154.205 61.2376 153.576 60.4854 152.787 59.9291C149.034 56.9446 145.529 53.6497 141.925 50.4807C136.925 46.0812 131.88 41.7298 126.951 37.253C124.728 35.235 122.173 34.9264 119.099 34.9624C119.214 37.0703 119.405 39.0007 119.398 40.9304C119.381 45.3311 119.517 49.754 119.128 54.1272C118.597 60.0768 115.948 62.8311 110.185 64.2443C109.337 64.4835 108.474 64.6665 107.603 64.7924C101.075 65.5059 94.5572 66.3838 88.01 66.8282C79.3986 67.4128 70.7686 67.9195 62.128 67.1201C55.8814 66.5423 52.5345 63.9254 50.7342 57.867C49.258 52.9884 48.4835 47.9253 48.4337 42.8292C48.4182 40.6028 48.4289 38.3765 48.4289 35.7035V35.7041ZM109.627 34.3187C105.089 34.3187 100.89 34.2209 96.6977 34.3389C87.0927 34.6092 77.4909 35.0077 67.8858 35.3066C64.2594 35.4211 60.6278 35.3884 56.9996 35.4583C56.2343 35.5153 55.4729 35.6156 54.7191 35.7585C55.1247 42.6329 56.017 49.1934 57.9711 55.5839C58.951 58.7906 59.5079 59.2431 62.9513 59.4619C64.2226 59.5432 65.502 59.6004 66.7745 59.5609C74.3211 59.3249 81.8811 59.2637 89.407 58.734C95.163 58.3298 100.888 57.3952 106.604 56.546C109.327 56.1412 109.724 55.6636 109.786 52.8846C109.901 47.7968 109.844 42.7055 109.83 37.6154C109.828 36.6494 109.715 35.6845 109.627 34.3182V34.3187Z" fill="#111827"/>
<path d="M107.709 84.1484C112.85 84.3036 122.363 84.5785 131.876 84.8929C133.052 84.9524 134.222 85.1042 135.375 85.3464C138.654 85.9763 140.93 87.8035 141.665 91.1362C142.233 93.7096 142.684 96.3179 143.017 98.9326C144.12 107.592 144.792 116.275 143.999 125.006C143.879 126.173 143.661 127.329 143.345 128.46C142.251 132.549 139.507 134.974 135.439 135.874C133.721 136.283 131.963 136.501 130.197 136.525C116.064 136.464 101.928 136.458 87.8002 136.157C80.2532 135.997 72.7119 135.337 65.1802 134.796C63.1292 134.611 61.0969 134.257 59.1039 133.739C52.9652 132.258 50.1351 128.966 49.6985 122.638C49.539 119.9 49.539 117.155 49.6985 114.417C49.9693 108.743 50.3492 103.074 50.7209 97.4048C50.8045 96.4319 50.9648 95.4676 51.2006 94.5199C52.1816 90.2086 54.8476 87.6947 59.2796 87.1902C64.5445 86.5947 69.8049 85.8554 75.0888 85.5457C84.4893 84.9971 93.9108 84.7216 107.709 84.1484ZM133.861 93.6094C129.793 93.3689 126.17 92.9434 122.552 92.9795C109.894 93.1066 97.2291 93.1742 84.5851 93.6976C76.3652 94.0377 68.1731 95.0948 59.9765 95.9085C57.7431 96.1301 57.5573 96.4428 57.2469 98.6171C57.1503 99.2956 57.1042 99.9805 57.1091 100.666C57.1546 107.81 57.2102 114.954 57.2761 122.098C57.2678 122.979 57.3201 123.86 57.4327 124.735C57.4708 125.278 57.6808 125.796 58.0321 126.213C58.3834 126.63 58.858 126.925 59.388 127.056C60.2237 127.337 61.0824 127.543 61.9543 127.675C69.5766 128.278 77.1955 129.156 84.8295 129.331C97.5837 129.621 110.348 129.485 123.108 129.454C125.952 129.424 128.792 129.249 131.618 128.931C135.064 128.571 135.669 127.986 135.758 124.508C135.96 116.579 136.102 108.643 134.869 100.761C134.51 98.4613 134.217 96.1519 133.861 93.6094Z" fill="#111827"/>
</g>
<defs>
<clipPath id="clip0_5966_13827">
<rect width="139.412" height="140.294" fill="white" transform="translate(34.7057 34.7051)"/>
</clipPath>
<clipPath id="clip1_5966_13827">
<rect width="139.412" height="140.294" fill="white" transform="translate(25 25)"/>
</clipPath>
</defs>
</svg>
