<svg width="200" height="200" viewBox="0 0 200 200" fill="none" xmlns="http://www.w3.org/2000/svg">
<g clip-path="url(#clip0_5966_13836)">
<path d="M167.021 91.9953C165.496 92.0236 163.99 92.0151 162.78 92.0078L161.977 92.0039L154.343 77.7109C154.794 77.1823 155.268 76.6417 155.751 76.0882C157.168 74.4684 158.633 72.7928 159.988 70.9851C161.696 68.7104 161.554 66.0769 159.621 64.1135L159.497 63.9883C154.663 59.078 149.664 54.0006 144.521 49.2413C143.061 47.8892 141.771 47.2885 140.482 47.3439C139.12 47.4045 137.771 48.2228 136.239 49.9173C135.131 51.1426 134.06 52.3685 132.925 53.6668C132.555 54.0921 132.179 54.5214 131.799 54.9549C128.416 51.5269 124.176 49.4797 118.196 48.3783C118.196 48.0319 118.203 47.689 118.208 47.3494C118.222 46.2537 118.235 45.2192 118.183 44.162C117.878 38.0659 116.155 36.3962 110.165 36.3945H110.116C106.366 36.3945 102.559 36.5269 98.8783 36.6554C97.127 36.716 95.3809 36.7775 93.6319 36.8251C90.9428 36.8987 89.2932 38.381 88.987 40.9986C88.787 42.7112 88.6559 44.4218 88.5401 45.9312C88.5034 46.414 88.4684 46.875 88.4333 47.3063L74.9104 54.963C74.633 54.6234 74.35 54.273 74.063 53.9159C73.1292 52.7596 72.1637 51.5631 71.1186 50.4028C69.6244 48.7434 68.181 47.9048 66.7049 47.8402C65.2666 47.7865 63.8171 48.4441 62.2754 49.8816C57.877 53.9832 53.6802 58.0819 49.8026 62.0641C46.6283 65.3224 46.4768 68.0635 49.263 71.8476C50.2562 73.1946 51.3617 74.468 52.2497 75.4913C52.5085 75.7896 52.7508 76.0678 52.97 76.3253L46.939 92.5688C46.3136 92.6254 45.6786 92.677 45.0374 92.7291C43.2777 92.8728 41.4582 93.0213 39.6487 93.2646C36.3513 93.7072 35.0672 95.1567 35.0684 98.4325C35.0684 104.754 35.135 110.017 35.2689 114.993C35.3186 116.845 35.8372 118.214 36.8111 119.063C37.8167 119.941 39.2454 120.262 41.1853 120.043C42.2762 119.921 43.3636 119.779 44.4517 119.637L44.737 119.599C44.7438 119.661 44.7604 119.721 44.7861 119.779L51.6064 134.66C50.7285 135.334 49.8491 136.006 48.9682 136.676C48.0063 137.409 47.0459 138.144 46.0871 138.88C43.28 141.042 42.758 143.506 44.5347 146.207C47.4462 150.629 50.8697 155.738 54.6643 160.402C58.0233 164.534 60.7478 164.829 65.4604 161.581C67.4218 160.228 69.3736 158.864 71.3401 157.487L73.6438 155.877C78.7744 159.957 83.8909 161.82 89.5706 161.736C89.5186 162.218 89.4678 162.676 89.4186 163.117C89.2717 164.433 89.1446 165.571 89.065 166.732C88.8582 169.77 89.2667 171.656 90.3886 172.853C91.4824 174.017 93.2664 174.54 96.1588 174.54H96.3452C100.266 174.51 104.251 174.441 108.104 174.375C109.695 174.347 111.285 174.32 112.876 174.295C115.094 174.26 116.661 173.702 117.67 172.589C118.679 171.477 119.082 169.858 118.898 167.643C118.774 166.121 118.635 164.6 118.51 163.232L118.397 161.995L130.241 156.998L130.487 157.333C130.926 157.933 131.374 158.543 131.815 159.157C132.036 159.464 132.251 159.775 132.467 160.087C132.853 160.645 133.253 161.224 133.684 161.773C135.806 164.479 138.143 165.053 141.263 163.637C142.291 163.206 143.258 162.64 144.138 161.955C145.148 161.114 146.159 160.274 147.173 159.436C151.303 156.011 155.575 152.47 159.634 148.819C161.481 147.157 162.329 145.766 162.386 144.308C162.443 142.821 161.652 141.298 159.822 139.371C158.485 137.965 157.137 136.571 155.898 135.291L154.656 134.004L162.476 119.058C162.794 119.027 163.141 118.995 163.509 118.961C164.744 118.848 166.278 118.704 167.792 118.525C171.022 118.143 172.171 117.086 172.918 113.816C174.438 107.16 173.257 100.664 172.06 95.7481C171.451 93.2431 169.705 91.9653 167.021 91.9953Z" fill="#1BB6F9"/>
</g>
<g clip-path="url(#clip1_5966_13836)">
<path d="M157.428 80.6574C155.903 80.6857 154.397 80.6772 153.187 80.6699L152.384 80.666L144.75 66.373C145.201 65.8444 145.675 65.3038 146.158 64.7503C147.575 63.1305 149.04 61.4549 150.395 59.6472C152.103 57.3725 151.961 54.739 150.028 52.7756L149.904 52.6504C145.07 47.7401 140.071 42.6627 134.928 37.9035C133.468 36.5514 132.178 35.9506 130.889 36.006C129.527 36.0666 128.178 36.8849 126.646 38.5794C125.538 39.8047 124.467 41.0306 123.332 42.3289C122.962 42.7542 122.586 43.1835 122.206 43.617C118.823 40.189 114.583 38.1418 108.603 37.0404C108.603 36.694 108.61 36.3511 108.615 36.0115C108.629 34.9158 108.642 33.8813 108.59 32.8241C108.285 26.728 106.562 25.0583 100.572 25.0566H100.523C96.7733 25.0566 92.9663 25.189 89.2853 25.3175C87.534 25.3781 85.7879 25.4397 84.0389 25.4872C81.3498 25.5608 79.7001 27.0431 79.3939 29.6607C79.194 31.3733 79.0629 33.0839 78.9471 34.5933C78.9104 35.0761 78.8754 35.5371 78.8403 35.9684L65.3174 43.6251C65.04 43.2855 64.757 42.9351 64.47 42.578C63.5362 41.4217 62.5707 40.2252 61.5256 39.0649C60.0314 37.4055 58.588 36.5669 57.1119 36.5023C55.6736 36.4486 54.2241 37.1062 52.6824 38.5437C48.2839 42.6453 44.0872 46.744 40.2096 50.7262C37.0353 53.9845 36.8838 56.7256 39.67 60.5097C40.6631 61.8567 41.7687 63.1301 42.6567 64.1534C42.9155 64.4517 43.1578 64.7299 43.377 64.9874L37.3459 81.2309C36.7206 81.2875 36.0856 81.3391 35.4444 81.3912C33.6847 81.5349 31.8652 81.6834 30.0557 81.9267C26.7583 82.3693 25.4742 83.8188 25.4753 87.0946C25.4753 93.4165 25.542 98.6789 25.6759 103.655C25.7256 105.507 26.2442 106.876 27.2181 107.725C28.2237 108.603 29.6524 108.924 31.5923 108.705C32.6832 108.583 33.7706 108.441 34.8587 108.299L35.1439 108.261C35.1508 108.323 35.1674 108.384 35.1931 108.441L42.0133 123.322C41.1355 123.996 40.2561 124.668 39.3752 125.338C38.4133 126.071 37.4529 126.806 36.4941 127.542C33.687 129.704 33.165 132.169 34.9416 134.869C37.8532 139.291 41.2767 144.4 45.0713 149.064C48.4303 153.196 51.1548 153.491 55.8674 150.243C57.8287 148.89 59.7806 147.526 61.7471 146.149L64.0508 144.539C69.1814 148.619 74.2979 150.482 79.9776 150.398C79.9256 150.88 79.8748 151.338 79.8256 151.779C79.6787 153.095 79.5516 154.233 79.472 155.394C79.2652 158.432 79.6736 160.318 80.7956 161.515C81.8894 162.679 83.6734 163.202 86.5658 163.202H86.7522C90.6727 163.172 94.6577 163.103 98.511 163.037C100.102 163.009 101.692 162.982 103.283 162.957C105.501 162.922 107.068 162.364 108.077 161.251C109.086 160.139 109.489 158.52 109.305 156.305C109.181 154.783 109.042 153.262 108.917 151.894L108.804 150.657L120.648 145.66L120.894 145.995C121.333 146.595 121.781 147.205 122.222 147.819C122.443 148.126 122.658 148.437 122.874 148.749C123.26 149.307 123.66 149.886 124.091 150.435C126.213 153.141 128.55 153.715 131.67 152.3C132.698 151.868 133.665 151.302 134.545 150.617C135.555 149.776 136.566 148.937 137.58 148.098C141.71 144.673 145.982 141.132 150.041 137.481C151.888 135.82 152.736 134.428 152.793 132.97C152.85 131.483 152.059 129.96 150.229 128.033C148.892 126.627 147.544 125.233 146.305 123.953L145.063 122.666L152.883 107.72C153.201 107.689 153.548 107.657 153.916 107.623C155.151 107.51 156.685 107.367 158.199 107.187C161.429 106.805 162.578 105.748 163.325 102.478C164.845 95.8219 163.664 89.3257 162.467 84.4102C161.858 81.9052 160.112 80.6274 157.428 80.6574ZM144.016 103.785C142.367 110.452 140.039 115.099 136.466 118.851C135.018 120.373 135.07 122.504 136.611 124.699C138.009 126.692 139.468 128.625 141.013 130.673C141.561 131.4 142.12 132.141 142.688 132.901L129.339 143.53C128.967 143.086 128.602 142.648 128.245 142.216C127.195 140.952 126.204 139.759 125.158 138.587C122.374 135.466 120.913 135.594 117.337 137.652C114.501 139.222 111.514 140.5 108.421 141.469C101.323 143.84 100.789 147.008 100.753 151.946C100.749 152.572 100.706 153.218 100.661 153.902C100.649 154.076 100.638 154.252 100.627 154.433H87.464L87.3922 152.849C87.3261 151.373 87.2623 149.955 87.1906 148.537C86.9878 144.563 86.1494 143.125 81.8442 142.969C75.3949 142.736 69.97 140.845 65.2586 137.188C63.4661 135.794 61.3917 135.911 58.9162 137.541C57.0706 138.758 55.2544 140.013 53.3309 141.344C52.6255 141.832 51.9028 142.332 51.1627 142.841L42.7489 131.535C43.2693 131.098 43.783 130.664 44.2899 130.231C45.7485 128.992 47.1253 127.821 48.5749 126.706C50.9667 124.867 51.165 123.787 49.5878 121.201C46.727 116.509 43.7725 110.825 43.5471 104.244C43.4691 101.939 42.119 100.728 39.5362 100.645C38.0171 100.596 36.4856 100.607 34.8581 100.617C34.2813 100.621 33.6887 100.625 33.074 100.627L32.5007 89.5521C33.3334 89.4643 34.1389 89.3726 34.9236 89.2838C37.0138 89.0461 38.991 88.8225 40.9513 88.7314C43.372 88.6182 44.7882 87.3289 45.161 84.8935C46.2479 77.8006 48.2529 72.3037 51.4701 67.5926C51.9959 66.9233 52.2849 66.0983 52.2919 65.2466C52.2988 64.3949 52.0233 63.5649 51.5085 62.8871C50.3229 61.1662 49.1325 59.4507 47.9371 57.7403L46.8394 56.1629L57.6164 45.1735C58.0412 45.5885 58.4662 46.0037 58.8914 46.4187C60.1342 47.6338 61.4165 48.8892 62.7017 50.1088C65.2235 52.4995 65.9416 52.1723 68.5736 50.4053C71.9009 48.1703 75.461 45.8509 79.1855 44.2096C82.3888 42.7986 85.2535 41.1591 85.1173 36.6568C85.1331 35.7058 85.2614 34.7601 85.4998 33.8394C85.5766 33.4811 85.654 33.1133 85.7257 32.7329H100.738C100.741 33.0425 100.747 33.3553 100.753 33.6706C100.775 34.7951 100.797 35.9573 100.715 37.0949C100.397 41.5247 101.876 43.406 105.992 43.8039C110.342 44.225 114.146 46.1618 118.319 50.0862C120.539 52.1724 121.765 52.5649 124.224 50.6135C125.862 49.3117 127.381 47.9382 128.987 46.482C129.537 45.9832 130.093 45.4824 130.654 44.9794L141.418 56.3339C141.165 56.6005 140.893 56.8828 140.608 57.1793C139.501 58.3317 138.247 59.6381 137.006 61.0049C133.684 64.665 133.663 66.0419 136.871 69.6641C140.27 73.4031 142.665 77.9464 143.83 82.8674C144.481 85.7131 146.112 87.0969 148.965 87.2248C150.334 87.2853 151.703 87.3601 153.246 87.4421L155.034 87.5372L155.669 99.4265H154C152.512 99.4231 151.169 99.422 149.825 99.4328C146.324 99.4622 144.803 100.601 144.016 103.785Z" fill="#111827"/>
<path d="M99.3619 58.3739C93.82 57.8605 88.2352 58.65 83.0521 60.6798C77.8685 62.7096 73.2296 65.9235 69.5045 70.0658C65.7793 74.2082 63.0707 79.1645 61.5942 84.5403C60.1177 89.9165 59.9141 95.5632 60.9997 101.032C63.8389 114.508 70.8129 123.033 82.3211 127.093C85.714 128.266 89.2826 128.845 92.8721 128.806C95.8588 128.782 98.8376 128.492 101.774 127.941C120.755 124.539 131.206 111.191 131.198 90.3545V90.3415C130.967 83.8232 128.799 77.5218 124.969 72.2468C118.938 64.167 110.323 59.4991 99.3619 58.3739ZM122.19 99.1101C119.935 110.407 112.822 116.971 100.446 119.175C96.4396 119.889 91.1841 120.508 86.0671 118.96C77.1558 116.262 71.8066 109.985 69.7142 99.7694C69.3867 97.9702 69.1724 96.1523 69.0724 94.3265C69.008 93.4775 68.9442 92.6331 68.8577 91.791C68.8419 88.3963 69.5105 85.0333 70.8234 81.9035C72.1363 78.7741 74.0665 75.9422 76.4983 73.578C81.6782 68.5788 88.9549 65.9832 96.9389 66.2356C105.558 66.5186 112.387 69.6242 117.235 75.4611C122.484 81.7829 124.105 89.5197 122.19 99.1101Z" fill="#111827"/>
</g>
<defs>
<clipPath id="clip0_5966_13836">
<rect width="139.535" height="138.663" fill="white" transform="translate(34.593 36.3379)"/>
</clipPath>
<clipPath id="clip1_5966_13836">
<rect width="139.535" height="138.663" fill="white" transform="translate(25 25)"/>
</clipPath>
</defs>
</svg>
