<svg width="200" height="200" viewBox="0 0 200 200" fill="none" xmlns="http://www.w3.org/2000/svg">
<g clip-path="url(#clip0_5971_13890)">
<path d="M162.038 86.0017C161.754 85.9034 161.484 85.7648 161.193 85.64C161.05 84.1182 160.805 82.6077 160.461 81.1187C155.833 65.9242 148.22 52.5936 136.109 42.1308C132.514 39.0214 128.601 36.3189 124.067 34.8365C119.419 33.3174 114.854 32.8067 110.181 35.5316C101.761 40.4386 93.0821 44.8931 84.5541 49.6145C67.4061 59.1086 50.0559 68.2596 33.9633 79.5622C33.3078 80.0548 32.5705 80.4265 31.786 80.66C29.5171 81.2333 28.0929 82.7988 26.8809 84.6327C24.8779 87.7777 23.7747 91.4171 23.6918 95.1513C23.181 104.964 24.657 114.778 28.0306 123.999C33.9817 140.256 43.7513 153.506 58.2777 163.038C61.2253 164.912 64.4712 166.262 67.8737 167.029C69.7622 167.488 71.6658 167.891 73.574 168.26C75.508 168.636 77.4245 168.912 79.0937 167.356C79.5089 166.969 80.2116 166.895 80.7814 166.673C83.3516 165.672 85.9608 164.757 88.4808 163.639C90.6161 162.692 92.6483 161.509 94.7998 160.392C95.5427 161.279 96.2017 162.058 96.8608 162.842C99.6623 166.282 103.065 169.179 106.9 171.389C113.438 175.027 120.137 175.538 126.901 172.147C129.492 170.915 131.956 169.426 134.255 167.703C145.091 159.2 151.869 148.065 154.815 134.589C155.396 131.933 155.586 129.192 156.02 126.024C157.745 127.328 159.168 128.453 160.643 129.504C162.813 131.048 164.864 132.864 167.234 133.991C168.837 134.759 170.585 135.171 172.361 135.201C174.136 135.23 175.897 134.876 177.524 134.163C179.152 133.449 180.608 132.392 181.796 131.063C182.983 129.735 183.872 128.166 184.405 126.462C185.742 122.38 186.284 118.092 185.363 113.939C182.415 100.632 175.441 90.5573 162.038 86.0017Z" fill="#00CEB3"/>
</g>
<g clip-path="url(#clip1_5971_13890)">
<path d="M151.008 77.307C151.299 77.4318 151.568 77.5704 151.852 77.6687C165.255 82.2243 172.229 92.2986 175.178 105.606C176.098 109.759 175.557 114.047 174.219 118.129C173.687 119.833 172.797 121.402 171.61 122.73C170.423 124.059 168.966 125.116 167.339 125.83C165.711 126.543 163.95 126.897 162.175 126.868C160.4 126.838 158.652 126.426 157.048 125.658C154.679 124.531 152.627 122.715 150.458 121.171C148.983 120.12 147.56 118.995 145.835 117.691C145.4 120.859 145.21 123.6 144.63 126.256C141.684 139.732 134.905 150.867 124.069 159.37C121.771 161.093 119.307 162.582 116.716 163.814C109.952 167.205 103.253 166.694 96.7144 163.056C92.8794 160.846 89.4769 157.949 86.6754 154.509C86.0164 153.725 85.3573 152.946 84.6144 152.059C82.4629 153.176 80.4307 154.359 78.2954 155.306C75.7755 156.424 73.1663 157.339 70.596 158.34C70.0262 158.562 69.3235 158.636 68.9083 159.023C67.2391 160.579 65.3226 160.303 63.3886 159.927C61.4804 159.558 59.5768 159.155 57.6884 158.696C54.2858 157.929 51.0399 156.579 48.0924 154.705C33.5659 145.173 23.7963 131.923 17.8452 115.666C14.4716 106.445 12.9956 96.6306 13.5065 86.8183C13.5893 83.0841 14.6926 79.4447 16.6955 76.2997C17.9075 74.4658 19.3317 72.9003 21.6006 72.327C22.3851 72.0935 23.1224 71.7218 23.7779 71.2292C39.8705 59.9266 57.2207 50.7755 74.3687 41.2815C82.8967 36.5601 91.5757 32.1056 99.9952 27.1986C104.668 24.4737 109.233 24.9844 113.881 26.5035C118.416 27.9859 122.329 30.6884 125.924 33.7978C138.035 44.2606 145.648 57.5912 150.276 72.7857C150.62 74.2747 150.865 75.7852 151.008 77.307ZM136.844 113.685C136.069 113.028 135.622 112.631 135.156 112.256C131.232 109.105 127.263 106.025 123.952 102.163C113.068 89.6245 104.877 74.957 99.894 59.0814C97.9642 52.9773 97.0889 46.5855 97.3064 40.1837C97.3513 38.9033 97.4573 37.6247 97.5562 36.0042C96.3028 36.6306 95.3849 37.0459 94.5072 37.5348C90.1144 39.9799 85.7174 42.4178 81.3492 44.9057C66.1051 53.5866 50.8721 62.2875 35.6503 71.0086C31.7422 73.2608 28.1329 76.0525 24.1697 78.1889C23.2614 78.6197 22.4807 79.2815 21.9048 80.1091C21.3289 80.9367 20.978 81.9012 20.8865 82.9073C19.9794 88.6219 20.8302 94.2337 21.908 99.7907C24.8365 114.89 32.0657 127.712 42.6133 138.752C48.6178 145.036 55.4602 149.923 63.9181 152.236C64.8682 152.572 65.887 152.662 66.881 152.5C71.9706 151.108 76.2949 148.19 80.6763 145.592C72.953 125.482 73.0255 105.23 76.7425 84.7315C72.6686 81.7595 71.9017 79.5713 73.3706 75.047C74.2495 72.3432 76.3752 70.6462 79.0964 70.8096C85.002 71.1604 86.667 72.3257 87.803 76.0434C88.1624 77.5355 88.1391 79.095 87.7353 80.5756C87.126 83.1551 84.5527 83.852 82.2892 85.3606C81.9363 91.2624 81.3725 97.3215 81.2737 103.386C81.1952 108.217 81.596 113.063 81.9423 117.892C82.4474 124.785 83.8841 131.576 86.2135 138.077C86.6071 139.183 87.1523 140.233 87.6005 141.249L136.844 113.685ZM120.559 84.7411C127.518 78.84 135.613 77.0472 144.168 76.4407C144.068 75.9379 143.94 75.4412 143.784 74.9529C140.517 66.7232 136.449 58.8387 131.64 51.4146C127.721 45.474 122.75 40.3083 116.976 36.1742C115.178 34.8703 113.042 34.0088 111.002 33.0756C110.141 32.7592 109.238 32.574 108.323 32.5264C107.811 32.4216 107.279 32.5248 106.842 32.8135C106.406 33.1022 106.1 33.5529 105.993 34.0673C105.673 34.9367 105.471 35.8459 105.394 36.7698C105.293 39.9594 105.352 43.152 105.57 46.3356C106.257 53.6902 108.79 60.556 111.52 67.3361C113.905 73.4462 116.936 79.2812 120.559 84.7405V84.7411ZM123.24 88.6201C123.275 88.9095 123.341 89.1934 123.438 89.4677C123.744 90.0018 124.069 90.5269 124.415 91.0351C128.372 96.8048 133.037 102.05 138.299 106.646C139.861 108.129 141.871 109.044 144.01 109.244C148.238 109.584 152.188 111.498 155.088 114.613C156.277 115.889 157.592 117.04 159.016 118.044C162.451 120.395 166.089 119.063 167.108 115.011C167.833 112.127 168.228 109.173 167.637 106.149C166.222 98.796 162.23 92.198 156.387 87.5555C153.517 85.1795 150.01 83.7139 146.311 83.3444C138.108 82.5149 130.491 84.4391 123.239 88.6201H123.24ZM91.3738 148.15C93.3096 150.145 94.7289 151.781 96.322 153.219C103.12 159.354 109.254 159.843 117.002 154.967C117.176 154.857 117.348 154.746 117.515 154.627C128.194 146.948 134.283 136.379 137.155 123.106L91.3738 148.15Z" fill="#111827"/>
</g>
<defs>
<clipPath id="clip0_5971_13890">
<rect width="162.963" height="141.667" fill="white" transform="translate(23.1854 33.333)"/>
</clipPath>
<clipPath id="clip1_5971_13890">
<rect width="162.963" height="141.667" fill="white" transform="translate(13 25)"/>
</clipPath>
</defs>
</svg>
