<svg width="200" height="200" viewBox="0 0 200 200" fill="none" xmlns="http://www.w3.org/2000/svg">
<g clip-path="url(#clip0_6021_7319)">
<path d="M158.302 96.7886C157.787 96.3264 157.246 95.8946 156.68 95.4953C155.006 94.3084 153.323 93.0631 151.696 91.8613C148.029 89.0503 144.221 86.4267 140.287 84.0007C123.247 73.8922 104.008 64.6235 81.4687 55.6662C77.9977 54.2866 74.4753 52.9659 70.7437 51.5681C68.9412 50.8926 67.079 50.1937 65.1296 49.4546C64.9799 49.3978 64.8146 49.3966 64.664 49.4513C64.5135 49.506 64.3875 49.6128 64.3093 49.7524C64.1143 50.099 63.8803 50.45 63.6541 50.7907C63.0646 51.5504 62.6397 52.4242 62.4067 53.3566C61.7468 56.8709 61.315 60.4241 61.114 63.994C61.0139 66.3968 60.9122 68.7994 60.8091 71.2017C60.2696 83.8761 59.7113 96.9813 59.5091 109.878C59.3141 122.226 59.3635 134.781 59.411 146.923C59.4305 151.875 59.4447 156.827 59.4538 161.779V161.953C59.416 163.265 59.4943 164.577 59.6878 165.875C59.8057 166.743 60.1223 167.572 60.6128 168.298C61.1034 169.024 61.7548 169.628 62.5166 170.062C63.2724 170.462 64.1158 170.668 64.971 170.662C65.8872 170.653 66.7915 170.454 67.6269 170.078C68.4858 169.671 69.3041 169.185 70.0709 168.624C70.4121 168.39 70.7534 168.157 71.1012 167.939C73.1968 166.623 75.2902 165.303 77.3815 163.98C81.9666 161.087 86.707 158.096 91.4 155.207C98.0712 151.1 104.75 147.005 111.436 142.922C119.76 137.829 128.369 132.561 136.813 127.343C144.727 122.452 151.828 116.343 158.422 110.506C161.116 108.121 162.375 105.984 162.387 103.779C162.396 101.528 161.098 99.3084 158.302 96.7886Z" fill="#FC787D"/>
</g>
<g clip-path="url(#clip1_6021_7319)">
<path d="M146.302 82.7886C145.787 82.3264 145.246 81.8946 144.68 81.4953C143.006 80.3084 141.323 79.0631 139.696 77.8612C136.029 75.0503 132.221 72.4267 128.287 70.0007C111.247 59.8922 92.0081 50.6235 69.4687 41.6662C65.9977 40.2866 62.4753 38.9659 58.7437 37.5681C56.9412 36.8926 55.079 36.1937 53.1296 35.4546C52.9799 35.3978 52.8146 35.3966 52.664 35.4513C52.5135 35.506 52.3875 35.6128 52.3093 35.7524C52.1143 36.099 51.8803 36.45 51.6541 36.7907C51.0646 37.5504 50.6397 38.4242 50.4067 39.3566C49.7468 42.8709 49.315 46.4241 49.114 49.994C49.0139 52.3968 48.9122 54.7994 48.8091 57.2017C48.2696 69.8761 47.7113 82.9813 47.5091 95.8782C47.3141 108.226 47.3635 120.781 47.411 132.923C47.4305 137.875 47.4447 142.827 47.4538 147.779V147.953C47.416 149.265 47.4943 150.577 47.6878 151.875C47.8057 152.743 48.1223 153.572 48.6128 154.298C49.1034 155.024 49.7548 155.628 50.5166 156.062C51.2724 156.462 52.1158 156.668 52.971 156.662C53.8872 156.653 54.7915 156.454 55.6269 156.078C56.4858 155.671 57.3041 155.185 58.0709 154.624C58.4121 154.39 58.7534 154.157 59.1012 153.939C61.1968 152.623 63.2902 151.303 65.3815 149.98C69.9666 147.087 74.707 144.096 79.4 141.207C86.0712 137.1 92.7497 133.005 99.4356 128.922C107.76 123.829 116.369 118.561 124.813 113.343C132.727 108.452 139.828 102.343 146.422 96.5058C149.116 94.121 150.375 91.984 150.387 89.779C150.396 87.5285 149.098 85.3084 146.302 82.7886ZM57.2974 45.4948L57.4632 45.5598C58.0543 45.7604 58.6174 46.0353 59.1389 46.3781C65.9535 51.4203 73.1977 55.5559 81.9779 60.214C94.9129 67.0778 105.73 72.8904 116.479 78.9515C120.291 81.1014 123.989 83.6329 127.566 86.0813C128.866 86.973 130.172 87.8653 131.483 88.742C132.348 89.3488 133.179 90.0033 133.971 90.7024C134.32 90.997 134.693 91.3111 135.1 91.6485C132.193 94.9252 128.911 97.8505 125.322 100.365C119.407 104.479 113.6 108.476 107.614 112.127C94.7855 119.952 81.6698 127.793 68.9857 135.377L59.1167 141.282C58.6491 141.532 58.1545 141.728 57.6426 141.866L57.5776 141.885C56.5694 131.642 56.3484 59.5106 57.2974 45.4948Z" fill="#111827"/>
</g>
<defs>
<clipPath id="clip0_6021_7319">
<rect width="104" height="122" fill="white" transform="translate(59 49)"/>
</clipPath>
<clipPath id="clip1_6021_7319">
<rect width="104" height="122" fill="white" transform="translate(47 35)"/>
</clipPath>
</defs>
</svg>
