<svg width="200" height="200" viewBox="0 0 200 200" fill="none" xmlns="http://www.w3.org/2000/svg">
<path d="M151.151 51.2417C151.227 50.8373 151.309 50.433 151.391 50.0292C151.675 48.7663 151.878 47.4867 152 46.198C152.169 43.9182 151.118 43.1084 149.366 42.5404C148.692 42.3014 147.966 42.2468 147.263 42.3822C146.56 42.5175 145.906 42.8379 145.367 43.3106C140.405 47.4726 135.402 51.6905 130.496 55.8462C128.732 57.3423 128.109 59.2573 128.55 61.8721C128.832 63.5532 129.008 65.289 129.177 66.968C129.306 68.2442 129.439 69.563 129.619 70.8584C129.76 71.8761 129.474 72.5661 128.565 73.4035L128.158 73.7771C125.649 76.0872 123.055 78.4754 120.618 80.9454C116.278 85.3432 111.901 89.8486 107.665 94.2055C105.654 96.2759 103.64 98.3451 101.626 100.413C100.185 101.891 100.488 103.028 100.997 103.722C101.185 104.002 101.437 104.23 101.733 104.389C102.029 104.548 102.359 104.631 102.694 104.632C103.379 104.599 104.038 104.354 104.579 103.93C105.522 103.227 106.416 102.459 107.253 101.632C112.105 97.0325 116.954 92.4291 121.799 87.8226L129.676 80.3408C130.469 79.5889 131.035 79.2258 132.042 79.2675C136.339 79.3967 140.706 79.3935 144.931 79.3888C146.13 79.3868 147.329 79.3868 148.529 79.3888H148.539C149.278 79.4081 150.012 79.2594 150.686 78.9538C151.36 78.6482 151.956 78.1936 152.43 77.6239C155.854 73.6985 159.399 69.761 162.718 66.0904C164.349 64.288 165.759 62.4094 165.127 59.2562C164.557 56.4215 164.174 55.1671 160.999 55.1494C159.341 55.1468 157.66 55.2349 156.035 55.3276C155.115 55.3797 154.195 55.4319 153.275 55.4663C152.532 55.4934 151.795 55.4876 150.94 55.4803L150.29 55.4751C150.357 55.1489 150.424 54.829 150.489 54.5153C150.726 53.3783 150.948 52.3115 151.151 51.2417Z" fill="#FC787D"/>
<path d="M39.6137 85.2083C33.6586 110.136 38.8733 132.127 55.1238 150.577C55.5466 151.054 55.9781 151.531 56.4089 151.99C65.1385 161.287 76.0115 167.027 84.6266 171.022C88.3243 172.741 107.298 174.83 112.431 174.016C142.939 169.163 163.016 150.838 170.008 120.178C171.343 114.173 172.008 108.02 171.989 101.848C172.021 87.3097 166.274 70.4073 154.421 57.7483C153.2 56.6737 151.984 55.5604 150.808 54.4815C148.258 52.1466 145.622 49.7291 142.864 47.6675C121.798 31.8759 99.9089 31.7875 77.8092 40.1615C57.8005 47.7384 44.9504 62.8972 39.6137 85.2083Z" fill="#FC787D"/>
<g clip-path="url(#clip0_5966_13822)">
<path d="M163.849 71.8186C163.416 70.063 162.524 68.7149 161.337 68.0229C160.886 67.7584 160.386 67.5901 159.867 67.5283C159.348 67.4665 158.822 67.5127 158.323 67.6639C156.714 68.1235 154.91 69.5492 155.454 73.7321C155.879 77.0056 156.232 80.3502 156.574 83.581C156.72 84.9599 156.868 86.3382 157.017 87.717C156.471 96.8883 155.866 105.157 154.012 113.391C151.589 124.146 146.584 134.284 139.135 143.521C133.094 151.014 125.375 155.658 115.535 157.716C107.392 159.36 99.0398 159.687 90.7941 158.686C84.091 157.918 76.2323 156.698 68.766 153.466C60.1218 149.724 54.0036 145.306 49.5103 139.56C42.8619 131.035 38.1097 121.178 35.5734 110.654C33.8564 103.971 33.3988 97.0253 34.2243 90.1745C35.4893 80.0928 38.9133 70.1855 44.9989 58.9939C47.1411 55.0438 50.0362 51.5557 53.5195 48.7283C61.9976 41.8337 70.3943 37.099 79.1889 34.2527C85.4432 32.2283 92.346 31.5919 100.3 32.3079C105.585 32.7836 110.721 34.3668 115.688 35.8983C116.801 36.2412 117.915 36.584 119.03 36.916L119.544 37.0723C120.494 37.3968 121.475 37.6238 122.471 37.7498C123.131 37.8081 124.503 37.4402 124.764 36.6554C124.887 36.2068 124.912 35.7366 124.835 35.2775C124.759 34.8184 124.583 34.3816 124.321 33.9979C123.648 33.1656 122.777 32.5161 121.789 32.1089C118.468 30.7254 115.466 29.4945 112.333 28.4476C106.371 26.4471 100.121 25.4437 93.8346 25.4774C83.7517 25.5619 73.8581 28.2348 65.0937 33.2418C61.8571 35.0557 58.9966 36.7414 56.3489 38.3954C48.5547 43.264 42.8908 48.9664 39.0336 55.8283C34.4044 64.0616 31.2066 71.6493 29.2562 79.023C26.9441 87.7654 26.1135 94.5819 26.5623 101.123C27.3406 112.446 30.9331 123.657 37.549 135.397C39.9325 139.732 42.8368 143.757 46.1968 147.382C53.2231 154.834 62.1258 160.106 73.4073 163.496C82.0836 166.113 91.0935 167.444 100.153 167.446C104.052 167.445 107.948 167.202 111.817 166.717C127.002 164.819 138.694 158.215 147.555 146.528C154.647 137.176 159.344 127.817 161.916 117.919C164.847 106.634 165.935 94.3438 165.244 80.3445C165.058 77.4633 164.59 74.6077 163.849 71.8186Z" fill="#111827"/>
<path d="M106.592 52.0198C107.215 52.085 107.837 52.1511 108.46 52.2095C109.018 52.2616 110.509 52.4017 111.007 50.9463C111.219 50.3981 111.211 49.7891 110.986 49.2464C110.761 48.7037 110.336 48.2693 109.799 48.0338C108.815 47.5338 107.772 47.159 106.695 46.9178C101.768 45.876 96.707 45.6425 91.7062 46.2262C82.3777 47.3272 74.5452 49.7526 67.7607 53.6415C58.7471 58.8077 53.171 65.4032 50.7137 73.808C50.3375 75.0966 49.8316 76.392 49.3844 77.535C45.5341 87.1179 44.5745 97.6269 46.6246 107.754C48.0733 114.912 49.8608 120.69 53.8752 125.628C63.0926 136.964 73.5749 143.359 85.921 145.181C88.5827 145.574 91.3176 145.705 93.957 145.832C95.1597 145.89 96.4029 145.95 97.6196 146.034H97.6554H97.6684C107.207 145.836 116.571 143.427 125.03 138.995C127.058 137.981 128.927 136.672 130.575 135.111C135.788 129.966 139.073 125.088 140.911 119.762C141.282 118.688 141.772 117.621 142.246 116.589C142.392 116.273 142.538 115.957 142.68 115.639C146.928 106.187 146.89 95.8531 142.563 84.0471C142.201 83.0544 141.636 82.1498 140.903 81.3921C140.432 80.8632 139.828 80.4713 139.154 80.2577C138.48 80.0446 137.761 80.0175 137.074 80.1795C136.419 80.39 135.833 80.7772 135.381 81.2983C134.929 81.8194 134.628 82.4546 134.51 83.1357C134.22 84.3749 134.435 85.7542 134.624 86.9715L134.667 87.2451C134.887 88.6812 135.155 90.1309 135.413 91.5337C135.852 93.9146 136.306 96.3773 136.537 98.8088C136.963 102.825 136.427 106.885 134.975 110.651C133.683 114.043 132.22 117.367 130.591 120.609C127.899 125.82 124.951 129.235 121.313 131.344C118.464 132.998 115.247 134.174 112.135 135.311L110.909 135.76C105.409 137.788 99.4917 137.793 93.735 137.796H93.6909C84.8381 137.796 78.0961 135.832 72.4772 131.617C71.562 130.929 70.5994 130.286 69.6686 129.664C68.6382 128.975 67.5728 128.263 66.5839 127.499C61.223 123.357 57.7204 118.693 55.8764 113.234C53.7055 106.814 51.4335 98.2976 53.1384 89.3498C53.6991 86.6688 54.3959 84.019 55.2263 81.4098C55.7312 79.7272 56.2524 77.9873 56.6924 76.2539C58.4908 69.1738 62.8497 63.6898 70.0193 59.4892C79.6906 53.8223 90.503 51.1897 102.127 51.6472C103.612 51.7061 105.126 51.8656 106.592 52.0198Z" fill="#111827"/>
<path d="M81.4485 77.4675C83.7978 76.1132 86.2899 75.0264 88.879 74.2274C91.5496 73.4291 94.3597 72.8893 97.0769 72.3671C97.7774 72.2322 98.4778 72.0977 99.1762 71.9586C100.066 71.7819 101.411 71.5141 101.438 69.9346C101.46 68.6955 100.64 67.8643 99.2483 67.7105C98.5167 67.6283 97.7805 67.5992 97.0448 67.6235C92.1042 67.8101 87.1346 68.9633 81.407 71.2546C76.4179 73.1708 72.3537 76.9409 70.0561 81.7837C65.9167 90.3136 65.6716 99.4369 69.3295 108.9C70.3594 111.563 71.9088 114.964 74.7734 117.642C81.1916 123.642 88.9999 126.683 97.9834 126.683C98.4093 126.683 98.8364 126.695 99.2639 126.709C99.6572 126.722 100.057 126.735 100.457 126.735C100.936 126.739 101.415 126.713 101.891 126.657C108.151 125.881 113.052 123.773 116.875 120.213C124.052 113.53 127.298 104.58 126.526 93.6116C126.416 92.0655 125.659 90.5371 124.991 89.1896C124.387 87.9733 123.007 87.0447 121.631 87.7248C120.699 88.2969 120.018 89.2021 119.724 90.2583C119.545 90.9947 119.484 91.7549 119.543 92.51C119.552 92.8784 119.561 93.2265 119.543 93.5668C119.497 94.4047 119.476 95.2567 119.456 96.0816C119.459 97.9768 119.312 99.8695 119.017 101.741C117.175 111.575 111.656 117.35 102.614 118.906C96.2442 120 89.9764 118.809 83.9872 115.362C81.6778 114.033 79.33 112.463 77.8004 109.986C73.33 102.747 72.2253 95.0399 74.5166 87.0786C75.8101 82.5732 78.1449 79.3387 81.4485 77.4675Z" fill="#111827"/>
<path d="M142.327 44.0229C142.404 43.6186 142.486 43.2143 142.568 42.8104C142.851 41.5476 143.055 40.268 143.177 38.9792C143.346 36.6994 142.295 35.8897 140.542 35.3217C139.868 35.0826 139.142 35.0281 138.44 35.1634C137.737 35.2987 137.083 35.6191 136.544 36.0918C131.582 40.2538 126.579 44.4717 121.672 48.6275C119.908 50.1235 119.285 52.0385 119.727 54.6534C120.009 56.3345 120.184 58.0703 120.353 59.7493C120.482 61.0254 120.616 62.3442 120.795 63.6397C120.936 64.6574 120.65 65.3473 119.741 66.1847L119.335 66.5584C116.826 68.8684 114.232 71.2567 111.794 73.7267C107.454 78.1245 103.077 82.6299 98.841 86.9868C96.8299 89.0571 94.8168 91.1264 92.802 93.1946C91.3617 94.6719 91.6647 95.8095 92.1732 96.5036C92.361 96.7829 92.6137 97.0117 92.9094 97.1706C93.2052 97.329 93.5352 97.4124 93.8704 97.4134C94.5558 97.3801 95.2142 97.1352 95.7554 96.7115C96.6987 96.0085 97.5921 95.2404 98.4296 94.4129C103.281 89.8137 108.13 85.2104 112.976 80.6038L120.852 73.1221C121.645 72.3701 122.211 72.007 123.218 72.0487C127.515 72.178 131.883 72.1748 136.107 72.1701C137.306 72.168 138.505 72.168 139.705 72.1701H139.715C140.454 72.1894 141.188 72.0407 141.862 71.735C142.536 71.4294 143.132 70.9748 143.606 70.4052C147.031 66.4798 150.575 62.5423 153.895 58.8717C155.525 57.0692 156.936 55.1906 156.304 52.0375C155.733 49.2027 155.351 47.9484 152.175 47.9307C150.517 47.9281 148.836 48.0161 147.211 48.1089C146.291 48.161 145.371 48.2132 144.451 48.2476C143.708 48.2747 142.971 48.2689 142.116 48.2616L141.467 48.2563C141.534 47.9301 141.6 47.6103 141.666 47.2966C141.902 46.1596 142.124 45.0928 142.327 44.0229ZM149.998 54.4449L150.126 54.4543L141.237 65.7512H126.321C126.278 65.6 126.23 65.4464 126.183 65.2906C125.966 64.6735 125.827 64.0315 125.768 63.3796C125.702 61.6548 125.705 59.893 125.708 58.1895C125.708 57.1676 125.712 56.1459 125.699 55.125C125.687 54.1172 125.833 53.3121 126.584 52.6608C129.393 50.2252 132.193 47.7765 135.164 45.1772L137.672 42.9845C137.647 43.3737 137.625 43.6567 137.583 43.9292C137.464 44.702 137.329 45.4727 137.195 46.2434C136.94 47.7103 136.676 49.2273 136.516 50.739C136.375 52.0719 136.561 52.9796 137.101 53.5919C137.641 54.2042 138.495 54.4954 139.803 54.5194C141.715 54.5559 143.657 54.5012 145.533 54.4496C146.55 54.422 147.568 54.3944 148.585 54.3798C149.002 54.3787 149.416 54.4064 149.997 54.447L149.998 54.4449Z" fill="#111827"/>
</g>
<defs>
<clipPath id="clip0_5966_13822">
<rect width="139.572" height="142.781" fill="white" transform="translate(26 25)"/>
</clipPath>
</defs>
</svg>
