<svg width="197" height="200" viewBox="0 0 197 200" fill="none" xmlns="http://www.w3.org/2000/svg">
<path d="M104.111 151.59C84.4999 165.912 65.3218 179.897 46.1806 193.932C44.7753 194.963 43.7031 196.438 42.3483 197.552C39.2134 200.126 36.2543 199.093 35.5427 195.08C35.2688 193.481 35.3453 191.84 35.7667 190.274C37.7633 183.093 39.6693 175.87 42.0974 168.831C46.697 155.503 51.629 142.29 56.4281 129.031C56.928 127.65 57.4744 126.286 57.9035 125.163C44.4474 112.851 31.7084 100.284 19.2757 87.4063C17.6036 85.6425 16.1885 83.6505 15.072 81.4898C13.6503 78.7757 14.6387 76.9548 17.6302 76.558C20.5848 76.1514 23.5637 75.9486 26.546 75.9506C37.9332 76.0176 49.3189 76.2707 60.706 76.3344C65.1681 76.3597 69.6317 76.0691 74.3315 75.9148C76.4998 70.4899 78.6258 65.2324 80.7062 59.957C86.18 46.0764 91.6443 32.1911 97.0984 18.3012C97.2873 17.7923 97.5079 17.2957 97.7587 16.8143C99.3375 13.9247 102.297 13.6536 104.273 16.3383C105.102 17.5772 105.777 18.9135 106.282 20.3172C110.572 30.8779 114.657 41.5251 119.147 51.9977C121.761 58.0913 125.01 63.9129 128.044 70.0064C129.342 70.0064 130.406 70.0277 131.473 70.0064C144.752 69.7019 158.03 69.3181 171.31 69.1132C177.667 69.0152 184.029 69.2962 190.389 69.3149C192.466 69.3215 194.192 69.8423 195.112 71.8028C195.561 72.737 195.687 73.795 195.468 74.8088C195.249 75.8226 194.699 76.7339 193.904 77.3983C189.723 81.4653 185.55 85.5495 181.189 89.4173C169.614 99.6838 157.938 109.836 146.312 120.046C145.211 121.013 144.181 122.06 143.155 123.035C143.27 123.665 143.434 124.284 143.644 124.889C152.494 143.952 157.981 164.064 162.164 184.582C162.88 187.476 163.435 190.408 163.828 193.363C164.255 198.089 162.668 198.752 158.137 199.482C151.795 200.51 147.94 197.16 143.91 193.464C133.406 183.829 122.897 174.194 113.719 163.224C110.589 159.483 107.508 155.706 104.111 151.59Z" fill="#FBB130"/>
<path d="M90.275 137.754C70.6634 152.076 51.4854 166.061 32.3442 180.096C30.9388 181.127 29.8667 182.602 28.5118 183.716C25.377 186.29 22.4179 185.258 21.7062 181.244C21.4324 179.645 21.5089 178.005 21.9303 176.438C23.9268 169.257 25.8329 162.034 28.261 154.995C32.8606 141.667 37.7925 128.454 42.5917 115.196C43.0916 113.814 43.638 112.45 44.0671 111.327C30.6109 99.0148 17.872 86.448 5.43932 73.5704C3.76722 71.8065 2.35206 69.8146 1.23553 67.6539C-0.186136 64.9398 0.802227 63.1189 3.79375 62.7221C6.74839 62.3155 9.72729 62.1126 12.7096 62.1147C24.0968 62.1816 35.4825 62.4348 46.8696 62.4984C51.3317 62.5238 55.7952 62.2332 60.495 62.0788C62.6634 56.654 64.7894 51.3965 66.8698 46.121C72.3436 32.2404 77.8078 18.3551 83.2619 4.46527C83.4509 3.95634 83.6715 3.45972 83.9223 2.97837C85.5011 0.0887568 88.4609 -0.18233 90.4362 2.50235C91.2659 3.74127 91.9409 5.07756 92.4458 6.48122C96.7352 17.042 100.82 27.6892 105.311 38.1617C107.924 44.2553 111.173 50.0769 114.208 56.1705C115.506 56.1705 116.569 56.1917 117.637 56.1705C130.915 55.866 144.193 55.4822 157.473 55.2773C163.83 55.1793 170.193 55.4602 176.553 55.479C178.63 55.4855 180.356 56.0064 181.275 57.9668C181.725 58.9011 181.85 59.9591 181.631 60.9729C181.412 61.9867 180.863 62.898 180.068 63.5624C175.887 67.6294 171.714 71.7135 167.353 75.5813C155.777 85.8478 144.102 96.0003 132.475 106.21C131.375 107.177 130.345 108.224 129.319 109.199C129.433 109.829 129.597 110.448 129.807 111.053C138.657 130.116 144.144 150.228 148.328 170.746C149.044 173.64 149.599 176.572 149.991 179.527C150.419 184.253 148.832 184.916 144.301 185.646C137.959 186.674 134.103 183.324 130.073 179.628C119.57 169.993 109.06 160.358 99.8822 149.388C96.7523 145.647 93.672 141.87 90.275 137.754ZM35.8839 166.622L36.4635 167.159C37.2265 166.619 38.0108 166.109 38.7493 165.536C54.3827 153.377 70.0182 141.218 85.6558 129.06C89.5397 126.049 91.6991 126.083 95.3803 129.293C97.8483 131.421 100.175 133.707 102.345 136.139C112.431 147.576 123.792 157.69 134.98 167.983C135.434 168.401 135.964 168.733 136.858 169.404C136.723 168.391 136.707 167.869 136.579 167.377C131.993 149.653 127.342 131.945 120.746 114.835C118.992 110.284 119.457 106.737 123.375 103.24C136.333 91.672 149.023 79.7979 161.807 68.0393C162.858 67.0734 163.901 66.1001 165.557 64.5658C163.259 64.5658 161.912 64.5503 160.566 64.5658C145.923 64.7659 131.274 64.7618 116.642 65.2713C110.339 65.4909 106.382 62.8217 103.657 57.5422C103.594 57.4213 103.537 57.2973 103.484 57.1732C100.879 51.0625 98.1104 45.0161 95.7215 38.8221C93.2323 32.3717 91.1234 25.7689 88.8142 19.2442C88.3754 18.0039 87.7793 16.8198 86.9586 14.9214C85.2405 19.204 83.6406 22.742 82.3866 26.3999C78.427 37.9551 74.5018 49.5241 70.7506 61.1487C68.3315 68.645 62.8466 71.8246 55.6716 71.329C44.992 70.5941 34.2896 70.1671 23.5945 69.6788C20.6633 69.5449 17.7255 69.6585 14.2747 69.6585C17.9388 72.9751 21.3585 76.015 24.7107 79.1226C33.6674 87.4164 42.6388 95.6974 51.4994 104.093C52.9202 105.544 54.0857 107.226 54.9468 109.068C56.1543 111.461 55.7471 113.387 53.4811 114.685C51.8233 115.636 51.3234 116.971 50.817 118.504C48.0925 126.751 45.2624 134.958 42.6845 143.244C40.2792 150.998 38.1401 158.829 35.8831 166.622H35.8839Z" fill="#111827"/>
</svg>
